<?xml version="1.0" encoding="UTF-8" standalone="no"?>
<svg width="744px" height="727px" viewBox="0 0 744 727" version="1.1" xmlns="http://www.w3.org/2000/svg" xmlns:xlink="http://www.w3.org/1999/xlink">
    <!-- Generator: Sketch 49.1 (51147) - http://www.bohemiancoding.com/sketch -->
    <title>Philips Phoenix 2012</title>
    <desc>Created with Sketch.</desc>
    <defs></defs>
    <g id="Page-1" stroke="none" stroke-width="1" fill="none" fill-rule="evenodd">
        <g id="Philips-Phoenix-2012" transform="translate(4.000000, -11.000000)">
            <path d="M681.667,11.667 L607.834,56 L607.334,49.167 L546.501,84.5 L544.334,85 C544.334,85 451.334,49.167 370.167,34.667 C370.167,34.667 261.334,58.333 195.5,85 C195.5,85 135.333,50.834 133.167,49.334 L132.5,55.834 L130.834,55.667 C130.834,55.667 59.667,12.001 58.334,11.834 L57.5,12.167 L83.5,133.834 C83.5,133.834 26.833,164.334 25,166.334 C25,166.334 99.5,631 369.5,640 C369.5,640 592.5,672 715.5,167 C715.5,167 672.5,142 655.5,134 L681.667,11.667" id="Fill-1" fill="#1B1C1B"></path>
            <path d="M681.667,11.667 L607.834,56 L607.334,49.167 L546.501,84.5 L544.334,85 C544.334,85 451.334,49.167 370.167,34.667 C370.167,34.667 261.334,58.333 195.5,85 C195.5,85 135.333,50.834 133.167,49.334 L132.5,55.834 L130.834,55.667 C130.834,55.667 59.667,12.001 58.334,11.834 L57.5,12.167 L83.5,133.834 C83.5,133.834 26.833,164.334 25,166.334 C25,166.334 99.5,631 369.5,640 C369.5,640 592.5,672 715.5,167 C715.5,167 672.5,142 655.5,134 L681.667,11.667 Z" id="Stroke-2" stroke="#8D908A"></path>
            <path d="M663.166,38.334 L595.166,78.334 L593.833,71.667 L545.833,99.667 C545.833,99.667 469.167,68.334 370.5,49 C370.5,49 307.833,58.334 193.833,99 C193.833,99 149.167,73.667 145.167,71 L144.5,78.334 L76.499,38.334 L97.833,139.667 L38.5,173 C38.5,173 123.5,626 371.5,626 C371.5,626 582.5,649 700.5,171 C700.5,171 645.5,142 641.5,141 L663.166,38.334" id="Fill-4" fill="#1C2342"></path>
            <path d="M379.25,146.5 C376.75,148.25 369,147 369,147 C366.5,146.75 365.5,144.5 365.5,144.5 C362.5,143.5 363.5,142 363.5,142 L370,139.5 C372.5,139.5 378,143.25 378,143.25 L381,144 C379.75,144 379.25,146.5 379.25,146.5 Z M598,157 L623,148 L640,69.5 L579,106.5 L577.5,98.5 L505,141 L505.5,133 L453,165.5 L464.5,168 L475,191 L455.5,216 L431.5,216 C429,213.5 404,196.5 404,196.5 C404,192.5 398,159 398,159 L411,158 C411,156 405.5,151.5 405.5,151.5 L414.5,149 L391,143.5 L370,133.5 L353,142 L328.5,143.5 L320.5,162.5 L337.5,161 L350.5,170.5 L333,200 L307.5,214.5 L284,215.5 L264.5,189.5 L275,167.5 L286.5,165 L235,133.5 L234.5,141.5 L161,99 L160.5,106 L98.5,70 L116.5,148 L142,157 L142.5,148 L223.5,181.5 L164,170 L163.5,176.5 L123.5,171.5 L145.5,224 L168.5,220 L166,214 L230.5,211 L185,225 L188,231.5 L157,244.5 L185,285 L204,275.5 L201,269 L244,249 L216,275 L219,279.5 L198,297 L228,323.5 L253,306 L236,329.5 L267,345.5 L294.5,317 L324.5,358 L286.5,382 L321.5,427 L350.5,397.5 L330,438 L357.5,457 L334.5,491.5 L370,578 L404.5,491 L381.5,457 L408.5,438 L388.5,397.5 L416.5,426.5 L451,382 L415.5,357.5 L444.5,317.5 L472.5,346.5 L504,330 L486.5,306.5 L512,323 L542,297.5 L520,279 L523,274.5 L494.5,249.5 L539,269 L535.5,276 L554,285 L583,244.5 L551.5,231 L553,224.5 L509,211 L573,214 L571,220.5 L594.5,224.5 L615.5,171 L575.5,177 L575,170.5 L515,182 L596.5,149 L598,157 Z" id="Fill-5" fill="#C2242B"></path>
            <polyline id="Fill-6" fill="#FFFFFE" points="370 96.25 374.25 104.5 372 110.75 377 111 376.75 115.5 384.5 119.75 391.25 112.5 403 110 390.5 128 390 134.25 369.5 126.25 349.5 134.5 349.25 127.5 336.75 111.25 347.75 112 354.25 119.25 362.75 116.5 362.75 111.25 368 111 365.25 105 370 96.25"></polyline>
            <path d="M504.25,114.75 C504.25,114.75 448.75,92 370.75,73.25 C370.75,73.25 293,90.25 235.5,115.25 L248,123.5 C248,123.5 324.75,90.75 369.75,78.25 C369.75,78.25 479.5,113 491.25,122.75 L504.25,114.75" id="Fill-7" fill="#1C2342"></path>
            <path d="M513.5,485 C513.5,485 417.5,573 371,590 C371,590 319.5,570.5 227.5,487 C227.5,487 315,587.5 370,607.5 C370,607.5 450,565 513.5,485" id="Fill-8" fill="#FFFFFE"></path>
            <polyline id="Fill-9" fill="#FFFFFE" points="531.5 354.667 491.167 373.334 442.5 447.667 465.834 448 415.5 526 500.5 430.334 479.167 430 531.5 354.667"></polyline>
            <polyline id="Fill-10" fill="#FFFFFE" points="209.167 354.667 249.5 373.334 298.167 447 273.833 448.667 325.167 526.334 239.833 431 261.167 430.667 209.167 354.667"></polyline>
            <text id="PHILLIPS" font-family="ZurichBT-BlackExtended, Zurich" font-size="90.4392" font-style="expanded" font-weight="700" letter-spacing="0.1499" fill="#1C2342">
                <tspan x="81.8672" y="303.127102">PHILLIPS</tspan>
            </text>
            <g id="Group-12" transform="translate(81.000000, 218.000000)" fill="#000000" fill-opacity="0" font-family="ZurichBT-BlackExtended, Zurich" font-size="90.4392" font-style="expanded" font-weight="700">
                <text id="P">
                    <tspan x="0.8672" y="85.1271016">P</tspan>
                </text>
                <text id="H">
                    <tspan x="84.9558945" y="85.1271016">H</tspan>
                </text>
                <text id="I">
                    <tspan x="182.736811" y="85.1271016">I</tspan>
                </text>
                <text id="L">
                    <tspan x="230.216446" y="85.1271016">L</tspan>
                </text>
                <text id="L">
                    <tspan x="304.809214" y="85.1271016">L</tspan>
                </text>
                <text id="I">
                    <tspan x="379.401981" y="85.1271016">I</tspan>
                </text>
                <text id="P">
                    <tspan x="426.881616" y="85.1271016">P</tspan>
                </text>
                <text id="S">
                    <tspan x="510.970311" y="85.1271016">S</tspan>
                </text>
            </g>
            <path d="M64.479,541.279 C67.922,543.473 71.267,546.766 74.501,551.482 C77.739,556.203 80.827,561.778 83.751,568.372 C86.68,574.976 89.404,582.314 91.92,590.2 C94.44,598.096 96.439,606.145 98.188,613.562 C100.688,624.167 103.724,635.1 105.704,645.939 C106.899,652.482 107.722,656.134 108.116,659.18 C108.154,661.799 108.173,663.429 108.211,667.078 C83.19,662.915 58.191,658.625 33.195,654.319 C33.136,643.305 33.073,643.862 32.931,628.125 C46.926,631.293 60.923,634.456 74.924,637.598 C74.494,632.379 73.69,626.811 72.502,621.537 C71.317,616.274 70.053,611.345 68.714,607.096 C67.375,602.844 66,598.939 64.589,595.471 C63.177,591.998 62.122,589.774 61.429,588.844 C48.221,584.058 35.02,579.255 21.815,574.46 C22.068,625.75 22.368,677.039 22.544,728.329 C13.88,728.133 9.549,728.038 0.891,727.847 C0.804,654.77 0.701,581.694 0.551,508.617 C21.884,519.458 43.159,530.413 64.479,541.279" id="Fill-13" fill="#C2242B"></path>
            <path d="M64.479,541.279 C67.922,543.473 71.267,546.766 74.501,551.482 C77.739,556.203 80.827,561.778 83.751,568.372 C86.68,574.976 89.404,582.314 91.92,590.2 C94.44,598.096 96.439,606.145 98.188,613.562 C100.688,624.167 103.724,635.1 105.704,645.939 C106.899,652.482 107.722,656.134 108.116,659.18 C108.154,661.799 108.173,663.429 108.211,667.078 C83.19,662.915 58.191,658.625 33.195,654.319 C33.136,643.305 33.073,643.862 32.931,628.125 C46.926,631.293 60.923,634.456 74.924,637.598 C74.494,632.379 73.69,626.811 72.502,621.537 C71.317,616.274 70.053,611.345 68.714,607.096 C67.375,602.844 66,598.939 64.589,595.471 C63.177,591.998 62.122,589.774 61.429,588.844 C48.221,584.058 35.02,579.255 21.815,574.46 C22.068,625.75 22.368,677.039 22.544,728.329 C13.88,728.133 9.549,728.038 0.891,727.847 C0.804,654.77 0.701,581.694 0.551,508.617 C21.884,519.458 43.159,530.413 64.479,541.279 Z" id="Stroke-14" stroke="#1C2342" stroke-width="9"></path>
            <path d="M201.71,681.211 C184.995,678.986 168.306,676.564 151.638,674.009 C151.542,665.16 151.439,664.883 151.21,653.838 C167.714,657.104 184.258,660.168 200.852,662.946 C200.491,643.341 200.292,623.734 199.907,604.129 C209.014,607.718 213.572,609.446 222.689,612.727 C223.326,652.564 223.804,692.394 224.079,732.235 C215.288,732.13 210.892,732.072 202.101,731.946 C201.959,715.035 201.86,698.123 201.71,681.211 Z M139.223,577.93 C140.201,628.924 140.945,679.911 141.415,730.912 C132.628,730.741 128.235,730.651 119.451,730.469 C118.962,676.141 118.203,621.826 117.205,567.503 C125.992,571.741 130.397,573.833 139.223,577.93 Z" id="Fill-16" fill="#C2242B"></path>
            <path d="M201.71,681.211 C184.995,678.986 168.306,676.564 151.638,674.009 C151.542,665.16 151.439,664.883 151.21,653.838 C167.714,657.104 184.258,660.168 200.852,662.946 C200.491,643.341 200.292,623.734 199.907,604.129 C209.014,607.718 213.572,609.446 222.689,612.727 C223.326,652.564 223.804,692.394 224.079,732.235 C215.288,732.13 210.892,732.072 202.101,731.946 C201.959,715.035 201.86,698.123 201.71,681.211 Z M139.223,577.93 C140.201,628.924 140.945,679.911 141.415,730.912 C132.628,730.741 128.235,730.651 119.451,730.469 C118.962,676.141 118.203,621.826 117.205,567.503 C125.992,571.741 130.397,573.833 139.223,577.93 Z" id="Stroke-17" stroke="#1C2342" stroke-width="9"></path>
            <path d="M318.101,660.479 C300.415,658.556 282.906,656.032 265.382,652.968 C262.758,654.036 260.754,655.713 259.375,657.955 C257.993,660.203 256.972,663.13 256.313,666.459 C256.516,679.816 256.591,693.172 256.657,706.532 C273.685,707.611 290.713,708.534 307.758,709.291 C311.423,708.119 313.95,706.659 315.347,704.916 C316.74,703.178 317.697,700.262 318.215,696.368 C318.214,684.405 318.142,672.442 318.101,660.479 Z M234.001,649.191 C233.963,646.238 233.945,644.733 233.907,641.75 C234.218,638.64 235.104,635.703 236.563,633.081 C238.021,630.46 239.709,628.308 241.62,626.622 C243.529,624.936 245.494,623.8 247.507,623.092 C249.515,622.386 251.231,622.314 252.648,622.75 C281.046,631.174 309.446,637.617 338.834,641.417 C338.872,665.638 338.905,689.859 338.92,714.081 C338.398,716.082 337.438,718.137 336.046,720.254 C334.649,722.378 333.081,724.375 331.341,726.238 C329.599,728.103 327.809,729.649 325.982,730.877 C324.152,732.108 322.624,732.718 321.406,732.722 C321.197,732.723 321.094,732.722 320.884,732.723 C292.19,732.774 263.499,732.633 234.807,732.355 C234.631,704.63 234.372,676.914 234.001,649.191 Z" id="Fill-19" fill="#C2242B"></path>
            <path d="M318.101,660.479 C300.415,658.556 282.906,656.032 265.382,652.968 C262.758,654.036 260.754,655.713 259.375,657.955 C257.993,660.203 256.972,663.13 256.313,666.459 C256.516,679.816 256.591,693.172 256.657,706.532 C273.685,707.611 290.713,708.534 307.758,709.291 C311.423,708.119 313.95,706.659 315.347,704.916 C316.74,703.178 317.697,700.262 318.215,696.368 C318.214,684.405 318.142,672.442 318.101,660.479 Z M234.001,649.191 C233.963,646.238 233.945,644.733 233.907,641.75 C234.218,638.64 235.104,635.703 236.563,633.081 C238.021,630.46 239.709,628.308 241.62,626.622 C243.529,624.936 245.494,623.8 247.507,623.092 C249.515,622.386 251.231,622.314 252.648,622.75 C281.046,631.174 309.446,637.617 338.834,641.417 C338.872,665.638 338.905,689.859 338.92,714.081 C338.398,716.082 337.438,718.137 336.046,720.254 C334.649,722.378 333.081,724.375 331.341,726.238 C329.599,728.103 327.809,729.649 325.982,730.877 C324.152,732.108 322.624,732.718 321.406,732.722 C321.197,732.723 321.094,732.722 320.884,732.723 C292.19,732.774 263.499,732.633 234.807,732.355 C234.631,704.63 234.372,676.914 234.001,649.191 Z" id="Stroke-20" stroke="#1C2342" stroke-width="9"></path>
            <path d="M363.509,687.734 C357.441,687.673 354.405,687.618 348.331,687.459 C348.678,684.486 349.461,681.469 350.682,678.06 C351.9,674.657 354.292,670.288 357.748,665.174 C359.322,662.846 361.237,660.414 363.506,657.925 C365.772,655.439 368.389,653.336 371.354,651.242 C374.314,649.15 377.455,647.286 380.77,645.685 C384.078,644.087 387.396,643.043 390.713,642.559 C412.623,640.476 433.989,636.947 455.467,632.155 C455.42,639.788 455.398,644.732 455.352,654.055 C435.068,657.109 414.843,659.315 394.367,660.557 C393.321,661.059 392.272,661.659 391.227,662.36 C390.181,663.061 388.872,664.423 387.303,666.417 C385.733,668.409 384.598,670.152 383.902,671.671 C383.205,673.197 382.682,675.044 382.334,677.238 C404.084,677.192 425.711,676.35 447.406,674.821 C447.37,681.895 447.357,683.905 447.367,691.119 C429.355,692.419 411.353,693.424 393.307,694.101 C391.388,694.164 389.474,695.941 387.559,699.483 C385.64,703.031 384.162,707.375 383.117,712.499 C407.954,712.162 432.761,711.396 457.574,710.267 C457.587,719.508 457.595,724.4 457.607,732.72 C421.186,732.805 384.764,732.245 348.345,732.578 C348.344,729.464 348.824,725.922 349.782,721.996 C350.738,718.076 352.09,714.073 353.832,710.066 C355.574,706.06 357.583,702.101 359.848,698.195 C362.113,694.291 364.466,690.839 366.91,687.76 C365.55,687.751 364.869,687.748 363.509,687.734" id="Fill-22" fill="#C2242B"></path>
            <path d="M363.509,687.734 C357.441,687.673 354.405,687.618 348.331,687.459 C348.678,684.486 349.461,681.469 350.682,678.06 C351.9,674.657 354.292,670.288 357.748,665.174 C359.322,662.846 361.237,660.414 363.506,657.925 C365.772,655.439 368.389,653.336 371.354,651.242 C374.314,649.15 377.455,647.286 380.77,645.685 C384.078,644.087 387.396,643.043 390.713,642.559 C412.623,640.476 433.989,636.947 455.467,632.155 C455.42,639.788 455.398,644.732 455.352,654.055 C435.068,657.109 414.843,659.315 394.367,660.557 C393.321,661.059 392.272,661.659 391.227,662.36 C390.181,663.061 388.872,664.423 387.303,666.417 C385.733,668.409 384.598,670.152 383.902,671.671 C383.205,673.197 382.682,675.044 382.334,677.238 C404.084,677.192 425.711,676.35 447.406,674.821 C447.37,681.895 447.357,683.905 447.367,691.119 C429.355,692.419 411.353,693.424 393.307,694.101 C391.388,694.164 389.474,695.941 387.559,699.483 C385.64,703.031 384.162,707.375 383.117,712.499 C407.954,712.162 432.761,711.396 457.574,710.267 C457.587,719.508 457.595,724.4 457.607,732.72 C421.186,732.805 384.764,732.245 348.345,732.578 C348.344,729.464 348.824,725.922 349.782,721.996 C350.738,718.076 352.09,714.073 353.832,710.066 C355.574,706.06 357.583,702.101 359.848,698.195 C362.113,694.291 364.466,690.839 366.91,687.76 C365.55,687.751 364.869,687.748 363.509,687.734 Z" id="Stroke-23" stroke="#1C2342" stroke-width="9"></path>
            <path d="M551.688,731.801 C551.595,706.417 551.361,681.035 551.721,655.653 C551.082,650.736 550.085,646.65 548.719,644.138 C547.356,641.633 544.848,639.782 541.203,638.7 C524.258,643.009 507.276,646.962 490.154,650.507 C489.938,677.853 489.947,705.189 490.01,732.536 C481.229,732.607 476.841,732.634 468.061,732.677 C468,698.095 468.092,663.522 468.328,628.94 C497.499,620.896 525.818,611.001 553.904,599.758 C555.479,599.115 557.217,599.045 559.121,599.725 C561.022,600.403 562.876,601.698 564.676,603.829 C566.476,605.959 568.141,608.885 569.662,612.674 C571.188,616.472 572.27,620.708 572.922,625.11 C572.543,660.571 572.459,695.998 572.594,731.461 C564.23,731.606 560.051,731.673 551.688,731.801" id="Fill-25" fill="#C2242B"></path>
            <path d="M551.688,731.801 C551.595,706.417 551.361,681.035 551.721,655.653 C551.082,650.736 550.085,646.65 548.719,644.138 C547.356,641.633 544.848,639.782 541.203,638.7 C524.258,643.009 507.276,646.962 490.154,650.507 C489.938,677.853 489.947,705.189 490.01,732.536 C481.229,732.607 476.841,732.634 468.061,732.677 C468,698.095 468.092,663.522 468.328,628.94 C497.499,620.896 525.818,611.001 553.904,599.758 C555.479,599.115 557.217,599.045 559.121,599.725 C561.022,600.403 562.876,601.698 564.676,603.829 C566.476,605.959 568.141,608.885 569.662,612.674 C571.188,616.472 572.27,620.708 572.922,625.11 C572.543,660.571 572.459,695.998 572.594,731.461 C564.23,731.606 560.051,731.673 551.688,731.801 Z" id="Stroke-26" stroke="#1C2342" stroke-width="9"></path>
            <path d="M607.102,576.312 C606.438,627.833 606.104,679.311 606.313,730.834 C597.529,731.007 593.138,731.09 584.355,731.25 C584.173,682.95 584.479,634.692 585.105,586.393 C593.909,582.459 598.309,580.437 607.102,576.312" id="Fill-28" fill="#C2242B"></path>
            <path d="M607.102,576.312 C606.438,627.833 606.104,679.311 606.313,730.834 C597.529,731.007 593.138,731.09 584.355,731.25 C584.173,682.95 584.479,634.692 585.105,586.393 C593.909,582.459 598.309,580.437 607.102,576.312 Z" id="Stroke-29" stroke="#1C2342" stroke-width="9"></path>
            <path d="M618.611,570.854 C630.249,565.277 641.822,559.565 653.35,553.761 C664.049,572.535 669.474,594.446 676.254,614.813 C684.824,586.304 691.553,557.124 701.492,529.045 C710.739,524.235 719.977,519.405 729.221,514.588 C715.936,556.145 710.549,602.912 690.645,642.01 C711.69,666.299 719.854,699.121 732.627,728.027 C719.981,728.318 707.337,728.609 694.691,728.905 C686.029,711.775 678.413,694.167 669.959,676.935 C662.159,694.742 655.08,713.046 645.525,730.016 C634.439,730.258 628.896,730.377 617.813,730.604 C630.92,705.914 638.963,677.448 655.207,654.578 C635.381,632.075 633.827,596.439 618.611,570.854" id="Fill-31" fill="#C2242B"></path>
            <path d="M618.611,570.854 C630.249,565.277 641.822,559.565 653.35,553.761 C664.049,572.535 669.474,594.446 676.254,614.813 C684.824,586.304 691.553,557.124 701.492,529.045 C710.739,524.235 719.977,519.405 729.221,514.588 C715.936,556.145 710.549,602.912 690.645,642.01 C711.69,666.299 719.854,699.121 732.627,728.027 C719.981,728.318 707.337,728.609 694.691,728.905 C686.029,711.775 678.413,694.167 669.959,676.935 C662.159,694.742 655.08,713.046 645.525,730.016 C634.439,730.258 628.896,730.377 617.813,730.604 C630.92,705.914 638.963,677.448 655.207,654.578 C635.381,632.075 633.827,596.439 618.611,570.854 Z" id="Stroke-32" stroke="#1C2342" stroke-width="9"></path>
        </g>
    </g>
</svg>